# xmcd
#
# Track frame offsets:
# 150
# 12371
# 24900
# 36558
# 56036
# 69078
# 80150
# 94107
# 106390
# 122594
# 133776
# 151097
# 162057
# 176263
# 187289
# 219069
# 233005
# 246398
# 252030
#
# Disc length: 3466 seconds
#
# Revision: 0
# Processed by: cddbd v1.5.1PL0 Copyright (c) Steve Scherf et al.
# Submitted via: Audion 3.0.2 (http://www.panic.com/audion/)
#
DISCID=f50d8813
DTITLE=Hervé Vilard - Capri c'est fini
DYEAR=1900
DGENRE=
TTITLE0=L'amour au hasard
TTITLE1=J'ai envie
TTITLE2=Il faut croire en demain
TTITLE3=Capri c'est fini
TTITLE4=L'arlequin de comédie...
TTITLE5=La sixième corde
TTITLE6=fais la rire
TTITLE7=Pedro
TTITLE8=Le monde
TTITLE9=Etrangers dans la nuit
TTITLE10=Mourir ou vivre
TTITLE11=Elvira
TTITLE12=Les anges du matin
TTITLE13=Tous les enfants ont besoin d'amour
TTITLE14=Pot pourri (Fais la rire, Ce n'était rien, Sayonara
TTITLE15=Le pirate de l'amour
TTITLE16=Amore caro, amore belle
TTITLE17=Je t'aime, je t'aime
TTITLE18=Que sont devenues les fleurs
EXTD=
EXTT0=
EXTT1=
EXTT2=
EXTT3=
EXTT4=
EXTT5=
EXTT6=
EXTT7=
EXTT8=
EXTT9=
EXTT10=
EXTT11=
EXTT12=
EXTT13=
EXTT14=
EXTT15=
EXTT16=
EXTT17=
EXTT18=
PLAYORDER=
